<svg xmlns="http://www.w3.org/2000/svg" width="1000.0005" height="283.677"><path d="M51.467.995C30.999 9.562 8.499 33.766 1.392 64.147c-9 38.494 28.453 54.772 31.525 49.435 3.615-6.271-6.711-8.392-8.837-28.365-2.747-25.796 9.245-54.62 24.339-67.268 2.805-2.35 2.672.921 2.672 6.97 0 10.818-.598 107.929-.598 128.196 0 27.424-1.133 36.083-3.167 44.64-2.061 8.672-5.375 14.532-2.864 16.789 2.805 2.525 14.783-3.48 21.718-13.159 8.315-11.607 11.226-25.547 11.748-40.686.631-18.248.605-47.206.631-63.723.026-15.148.256-59.506-.265-86.173C78.166 4.263 60.026-2.6 51.466.987m726.8 128.35c-.66 14.256-3.816 25.4-7.733 33.26-7.583 15.218-23.317 19.943-29.998-1.932-3.64-11.925-3.81-31.84-1.193-48.479 2.664-16.951 10.104-29.753 22.423-28.599 12.151 1.141 17.838 16.798 16.5 45.749zM573.422 217.79c-.165 23.688-3.893 44.459-11.888 50.491-11.34 8.554-26.58 2.138-23.425-15.148 2.793-15.297 15.999-30.918 35.345-50.006 0 0 .04 4.353-.031 14.663zm-3.097-88.593c-.693 12.986-4.06 26.03-7.732 33.401-7.581 15.217-23.43 19.975-29.998-1.933-4.49-14.967-3.415-34.34-1.193-46.546 2.883-15.837 9.872-30.53 22.423-30.53 12.203 0 18.22 13.389 16.5 45.61zM451.661 129c-.744 13.753-3.427 25.25-7.732 33.6-7.79 15.112-23.201 19.904-29.998-1.934-4.9-15.747-3.232-37.218-1.193-48.817 3.024-17.212 10.599-29.415 22.423-28.258 12.146 1.186 18.05 16.796 16.5 45.41zm543.816 16.064c-2.97 0-4.324 3.06-5.445 8.212-3.888 17.912-7.975 21.957-13.245 21.957-5.888 0-11.178-8.87-12.538-26.625-1.069-13.96-.897-39.664.47-65.231.279-5.253-1.17-10.45-15.26-15.57-6.063-2.201-14.876-5.443-19.264 5.15-12.398 29.925-17.25 53.683-18.39 63.334-.06.5-.672.601-.78-.566-.727-7.73-2.353-21.777-2.555-51.29-.039-5.757-1.259-10.659-7.614-14.672-4.124-2.603-16.647-7.208-21.156-1.73-3.907 4.48-8.431 16.539-13.132 30.832-3.82 11.618-6.482 19.477-6.482 19.477s.05-31.346.096-43.236c.02-4.486-3.057-5.98-3.984-6.251-4.176-1.212-12.403-3.237-15.896-3.237-4.309 0-5.364 2.408-5.364 5.918 0 .46-.68 41.27-.68 69.806 0 1.24 0 2.592.012 4.029-2.383 13.115-10.112 30.92-18.518 30.92-8.416 0-12.386-7.444-12.386-41.464 0-19.846.595-28.476.888-42.83.17-8.268.499-14.617.48-16.057-.062-4.419-7.702-6.645-11.257-7.468-3.572-.83-6.675-1.152-9.1-1.014-3.43.194-5.857 2.444-5.857 5.54 0 1.66.02 4.815.02 4.815-4.419-6.943-11.525-11.775-16.253-13.176-12.735-3.782-26.024-.43-36.047 13.595-7.967 11.145-12.769 23.767-14.659 41.901-1.382 13.258-.93 26.702 1.525 38.072-2.967 12.83-8.476 18.085-14.509 18.085-8.757 0-15.106-14.294-14.37-39.016.487-16.26 3.74-27.67 7.297-44.18 1.517-7.037.285-10.721-2.805-14.253-2.835-3.238-8.874-4.892-17.556-2.857-6.184 1.45-15.026 3.01-23.115 4.21 0 0 .488-1.948.889-5.382 2.104-18.007-17.463-16.546-23.706-10.794-3.726 3.433-6.263 7.483-7.226 14.765-1.526 11.555 7.898 17.005 7.898 17.005-3.092 14.153-10.672 32.643-18.497 46.01-4.19 7.163-7.397 12.47-11.536 18.112-.015-2.101-.027-4.202-.034-6.292-.095-29.757.3-53.177.476-61.618.17-8.268.502-14.448.483-15.89-.047-3.23-1.934-4.451-5.859-5.996-3.47-1.367-7.574-2.313-11.831-2.643-5.373-.419-8.61 2.43-8.525 5.8.016.637.016 4.543.016 4.543-4.418-6.943-11.525-11.775-16.253-13.176-12.735-3.78-26.023-.429-36.047 13.595-7.964 11.145-13.18 26.783-14.658 41.763-1.377 13.962-1.123 25.827.754 35.821-2.025 10.009-7.847 20.475-14.43 20.475-8.416 0-13.205-7.444-13.205-41.464 0-19.846.596-28.476.89-42.828.17-8.268.497-14.618.479-16.057-.062-4.419-7.702-6.646-11.257-7.47-3.72-.86-6.931-1.177-9.397-.995-3.254.242-5.541 3.156-5.541 5.329v5.007c-4.419-6.943-11.525-11.775-16.253-13.176-12.735-3.78-25.95-.375-36.047 13.595-6.584 9.11-11.915 19.209-14.659 41.565-.792 6.46-1.142 12.51-1.097 18.164-2.626 16.058-14.223 34.566-23.71 34.566-5.55 0-10.837-10.767-10.837-33.714 0-30.566 1.892-74.086 2.212-78.28 0 0 11.985-.204 14.307-.231 5.978-.066 11.393.075 19.356-.332 3.994-.204 7.842-14.538 3.72-16.312-1.869-.803-15.073-1.506-20.308-1.617-4.401-.1-16.655-1.007-16.655-1.007s1.1-28.886 1.355-31.938c.218-2.543-3.073-3.853-4.96-4.647-4.588-1.94-8.694-2.87-13.56-3.873-6.722-1.387-9.772-.03-10.368 5.644-.897 8.61-1.362 33.833-1.362 33.833-4.933 0-21.785-.964-26.72-.964-4.585 0-9.533 19.718-3.195 19.96 7.294.283 20.003.527 28.43.781 0 0-.376 44.237-.376 57.895 0 1.453.012 2.852.015 4.21-4.637 24.17-20.97 37.226-20.97 37.226 3.507-15.99-3.658-27.998-16.565-38.162-4.755-3.746-14.142-10.837-24.645-18.608 0 0 6.083-5.995 11.478-18.057 3.822-8.544 3.987-18.321-5.395-20.477-15.502-3.565-28.284 7.82-32.096 19.974-2.954 9.416-1.379 16.402 4.408 23.66.423.53.88 1.072 1.353 1.618-3.499 6.745-8.306 15.825-12.378 22.867-11.3 19.552-19.837 35.017-26.29 35.017-5.156 0-5.087-15.7-5.087-30.401 0-12.673.936-31.727 1.683-51.453.247-6.524-3.015-10.24-8.483-13.607-3.323-2.045-10.414-6.066-14.521-6.066-6.147 0-23.883.836-40.64 49.31-2.112 6.11-6.26 17.242-6.26 17.242l.356-58.291c0-1.367-.728-2.688-2.394-3.592-2.824-1.533-10.366-4.67-17.073-4.67-3.195 0-4.79 1.487-4.79 4.45l-.585 91.197c0 6.93.181 15.013.866 18.549.683 3.54 1.788 6.42 3.158 8.133 1.368 1.71 2.95 3.014 5.558 3.553 2.427.5 15.72 2.207 16.41-2.873.828-6.088.86-12.673 7.84-37.23 10.866-38.234 25.034-56.888 31.694-63.513 1.165-1.158 2.494-1.227 2.43.668-.284 8.382-1.284 29.328-1.957 47.122-1.804 47.62 6.859 56.447 19.239 56.447 9.47 0 22.822-9.41 37.134-33.233a8367.4 8367.4 0 0 0 23.81-39.892c4.337 4.015 9.205 8.337 14.07 12.953 11.304 10.73 15.015 20.924 12.553 30.595-1.884 7.394-8.977 15.013-21.6 7.608-3.68-2.161-5.25-3.83-8.95-6.266-1.988-1.309-5.023-1.7-6.842-.33-4.726 3.565-7.43 8.097-8.973 13.709-1.501 5.46 3.967 8.347 9.636 10.872 4.881 2.173 15.372 4.142 22.063 4.366 26.07.872 46.952-12.587 61.49-47.304 2.602 29.982 13.677 46.949 32.92 46.949 12.864 0 25.762-16.629 31.402-32.987 1.62 6.668 4.016 12.467 7.111 17.37 14.828 23.492 43.591 18.436 58.04-1.513 4.467-6.164 5.147-8.379 5.147-8.379 2.107 18.837 17.276 25.418 25.961 25.418 9.727 0 19.77-4.598 26.81-20.445a48.44 48.44 0 0 0 2.708 4.919c14.827 23.492 43.59 18.436 58.039-1.513a92.034 92.034 0 0 0 1.79-2.546l.423 12.372s-8.242 7.561-13.302 12.2c-22.268 20.43-39.2 35.93-40.446 53.98-1.6 23.016 17.067 31.57 31.189 32.691 14.997 1.19 27.84-7.094 35.733-18.688 6.943-10.205 11.488-32.169 11.155-53.861-.133-8.687-.352-19.732-.524-31.572 7.827-9.089 16.645-20.576 24.765-34.023 8.848-14.654 18.331-34.334 23.187-49.649 0 0 8.24.07 17.032-.505 2.813-.183 3.62.39 3.1 2.453-.627 2.49-11.108 42.917-1.543 69.848 6.548 18.436 21.307 24.367 30.058 24.367 10.244 0 20.043-7.736 25.295-19.223.633 1.28 1.294 2.52 2.016 3.664 14.827 23.492 43.49 18.405 58.04-1.513 3.283-4.494 5.147-8.38 5.147-8.38C786.329 185.977 801.489 192 810.173 192c9.045 0 17.63-3.708 24.594-20.188.291 7.256.75 13.189 1.473 15.06.441 1.144 3.011 2.58 4.881 3.273 8.275 3.069 16.714 1.618 19.836.986 2.163-.437 3.85-2.173 4.08-6.653.606-11.766.234-31.533 3.801-46.224 5.987-24.655 11.572-34.218 14.221-38.953 1.483-2.653 3.156-3.09 3.217-.283.125 5.68.407 22.363 2.726 44.776 1.704 16.484 3.98 26.227 5.728 29.31 4.99 8.819 11.155 9.236 16.174 9.236 3.193 0 9.87-.882 9.272-6.494-.29-2.735.22-19.64 6.122-43.929 3.854-15.862 10.28-30.194 12.599-35.434.855-1.932 1.252-.409 1.238-.112-.488 10.923-1.583 46.654 2.867 66.196C949.034 189.038 966.485 192 972.567 192c12.982 0 23.6-9.876 27.176-35.86.862-6.253-.414-11.082-4.236-11.082" style="fill:#000;stroke-width:1.26262"/></svg>