<svg width="124" height="41" viewBox="0 0 124 41" fill="none" xmlns="http://www.w3.org/2000/svg">
<g clip-path="url(#clip0_217_1549)">
<path d="M47.685 12.2236H33.3047V16.4875H47.685V12.2236Z" fill="black"/>
<path d="M84.1484 4H88.6486V25.3191H84.1484V4Z" fill="black"/>
<path d="M107.499 21.3591L98.167 10.0601L98.258 13.1353V25.3191H93.7578V4H98.258L108.88 16.8531L119.503 4H124.003V25.3191H119.503V13.1353L119.592 10.0601L110.229 21.3591H107.499Z" fill="black"/>
<path d="M31.51 8.26383H49.7837V4H27.0078V25.3191H50.3823V21.0553H31.51V8.26383Z" fill="black"/>
<path d="M71.3339 17.5531H71.6049C76.0161 17.5531 79.6465 15.8779 79.6465 10.8525C79.6465 5.82706 76.0464 4 71.5442 4H54.8906V25.3191H59.3908V8.26383H71.6939C73.674 8.26383 75.0533 8.93306 75.0533 10.8525C75.0533 12.7719 73.674 13.4412 71.6939 13.4412H63.6685V16.0196L73.583 25.3191H80.5445L71.3319 17.5531H71.3339Z" fill="black"/>
<path d="M98.4141 30.798V35.3062C98.4141 36.1643 99.0775 36.8376 99.9229 36.8376H107.513V35.4458H99.9229C99.8521 35.4458 99.7853 35.378 99.7853 35.3062V30.798C99.7853 30.7262 99.8521 30.6585 99.9229 30.6585H107.513V29.2666H99.9229C99.0775 29.2666 98.4141 29.9399 98.4141 30.798Z" fill="black"/>
<path d="M0 29.2668H5.91391C7.51172 29.2668 8.78996 29.8827 8.78996 31.7016C8.78996 33.5204 7.48947 34.0911 5.92402 34.0911H5.64694L9.09941 36.8379H6.96766L3.70732 34.1342H1.37331V36.8379H0V29.2668ZM5.94627 32.8245C6.77754 32.8245 7.3843 32.5432 7.3843 31.6995C7.3843 30.8558 6.78765 30.5643 5.95638 30.5643H1.37331V32.8245H5.94627Z" fill="black"/>
<path d="M22.1953 29.1064C25.488 29.1064 27.2031 30.8042 27.2031 33.0541C27.2031 35.3041 25.488 37.0018 22.1953 37.0018C18.9026 37.0018 17.1875 35.3041 17.1875 33.0541C17.1875 30.8042 18.9026 29.1064 22.1953 29.1064ZM22.1953 35.6921C24.6446 35.6921 25.7975 34.5897 25.7975 33.0541C25.7975 31.5186 24.6466 30.4039 22.1953 30.4039C19.744 30.4039 18.5831 31.5083 18.5831 33.0541C18.5831 34.5999 19.744 35.6921 22.1953 35.6921Z" fill="black"/>
<path d="M35.8281 36.8376V29.2666H41.7299C43.3722 29.2666 44.4482 29.7757 44.4482 31.1922C44.4482 32.0462 44.0437 32.5225 43.4248 32.8242C44.341 33.085 44.9801 33.6351 44.9801 34.7396C44.9801 35.9836 44.2116 36.8376 42.2962 36.8376H35.8281ZM37.2014 30.564V32.2946H41.6126C42.6461 32.2946 43.1578 32.1119 43.1578 31.4406C43.1578 30.7693 42.7209 30.564 41.7299 30.564H37.2014ZM37.2014 33.592V35.5279H42.2962C43.2974 35.5279 43.6918 35.1912 43.6918 34.5425C43.6918 33.8178 43.1699 33.59 42.1668 33.59H37.2014V33.592Z" fill="black"/>
<path d="M58.3984 29.1064C61.6911 29.1064 63.4062 30.8042 63.4062 33.0541C63.4062 35.3041 61.6911 37.0018 58.3984 37.0018C55.1057 37.0018 53.3906 35.3041 53.3906 33.0541C53.3906 30.8042 55.1057 29.1064 58.3984 29.1064ZM58.3984 35.6921C60.8477 35.6921 62.0006 34.5897 62.0006 33.0541C62.0006 31.5186 60.8498 30.4039 58.3984 30.4039C55.9471 30.4039 54.7862 31.5083 54.7862 33.0541C54.7862 34.5999 55.9471 35.6921 58.3984 35.6921Z" fill="black"/>
<path d="M76.3883 30.5665V36.8401H75.013V30.5665H71.3906V29.269H80.0208V30.5665H76.3883Z" fill="black"/>
<path d="M88.4219 29.2666H89.7952V36.8376H88.4219V29.2666Z" fill="black"/>
<path d="M117.517 30.6585H123.999V29.2666H117.517C116.671 29.2666 116.008 29.9399 116.008 30.798V32.1837C116.008 33.0275 116.685 33.7152 117.517 33.7152H122.49C122.563 33.7152 122.628 33.7747 122.628 33.8445V35.3062C122.628 35.378 122.561 35.4458 122.49 35.4458H116.008V36.8376H122.49C123.335 36.8376 123.999 36.1643 123.999 35.3062V33.8445C123.999 33.0008 123.321 32.3131 122.49 32.3131H117.517C117.444 32.3131 117.379 32.2535 117.379 32.1837V30.798C117.379 30.7262 117.446 30.6585 117.517 30.6585Z" fill="black"/>
<path d="M4.89051 8.26383H22.7738V4H4.24936C1.86681 4 0 5.89481 0 8.31309V12.2115C0 14.5887 1.90523 16.5246 4.24936 16.5246H17.6103C17.8186 16.5246 18.0006 16.695 18.0006 16.89V20.6612C18.0006 20.8644 17.8105 21.0553 17.6103 21.0553H0V25.3191H18.2514C20.634 25.3191 22.5008 23.4243 22.5008 21.006V16.5349C22.5008 14.1576 20.5955 12.2218 18.2514 12.2218H4.89051C4.68421 12.2218 4.50218 12.0514 4.50218 11.8564V8.65798C4.50218 8.45474 4.6923 8.26383 4.89051 8.26383Z" fill="black"/>
</g>
<defs>
<clipPath id="clip0_217_1549">
<rect width="124" height="41" fill="white"/>
</clipPath>
</defs>
</svg>
